PathFileType	4	(X/Y/Z)	Walk6.trc
DataRate	CameraRate	NumFrames	NumMarkers	Units	OrigDataRate	OrigDataStartFrame	OrigNumFrames
200.000000	200.000000	8	59	mm	200.000000	557	600
Frame#	Times		LFHD		RFHD		CLAV		STRN		LASI		RASI		RACR1		RUA1		RElbow		RFA1		RWRR		RWRU		RCAR		LACR1		LUA1		LElbow		LFA1		LWRR		RTH2		RTB1		RTB2		LTH1		LTH3		LTH2		LTH4		LMFC		LTB1		LTB2		LTB4		LMT1		LLFC		LCAR		LTB3		LWRU		RTB4		RTB3		RTH3		RMFC		RMMAL		RTH4		RLFC		RMT1		RToe		RTH1		LBHD		RElbowM		RCAL		LMT5		LToe		RBack		RPSI		C7		T10		LPSI		LMMAL		LLMAL		LCAL		LElbowM		RBHD
			X1	Y1	Z1	X2	Y2	Z2	X3	Y3	Z3	X4	Y4	Z4	X5	Y5	Z5	X6	Y6	Z6	X7	Y7	Z7	X8	Y8	Z8	X9	Y9	Z9	X10	Y10	Z10	X11	Y11	Z11	X12	Y12	Z12	X13	Y13	Z13	X14	Y14	Z14	X15	Y15	Z15	X16	Y16	Z16	X17	Y17	Z17	X18	Y18	Z18	X19	Y19	Z19	X20	Y20	Z20	X21	Y21	Z21	X22	Y22	Z22	X23	Y23	Z23	X24	Y24	Z24	X25	Y25	Z25	X26	Y26	Z26	X27	Y27	Z27	X28	Y28	Z28	X29	Y29	Z29	X30	Y30	Z30	X31	Y31	Z31	X32	Y32	Z32	X33	Y33	Z33	X34	Y34	Z34	X35	Y35	Z35	X36	Y36	Z36	X37	Y37	Z37	X38	Y38	Z38	X39	Y39	Z39	X40	Y40	Z40	X41	Y41	Z41	X42	Y42	Z42	X43	Y43	Z43	X44	Y44	Z44	X45	Y45	Z45	X46	Y46	Z46	X47	Y47	Z47	X48	Y48	Z48	X49	Y49	Z49	X50	Y50	Z50	X51	Y51	Z51	X52	Y52	Z52	X53	Y53	Z53	X54	Y54	Z54	X55	Y55	Z55	X56	Y56	Z56	X57	Y57	Z57	X58	Y58	Z58	X59	Y59	Z59

557	2.785	1408.9	1667.1	-64.04	1409.2	1676.4	34.581	1411.7	1413.9	11.004	1476.9	1254.6	17.102	1355.3	996.73	-154.2	1372.8	1006	212.49	1295.4	1506.5	176.52	1271.3	1348.3	305.25	1278.3	1203.1	364.62	1309.5	1054.5	390.79	1333.7	932.76	329.67	1324.5	941.86	411	1358	856.13	383.81	1292.4	1471.8	-170.85	1278.9	1295.2	-257.09	1295.4	1131.4	-306.32	1357.1	1005.5	-313.27	1447.8	910.36	-253.07	1427	749.29	243.64	1454.7	406.9	180.06	1393.5	337.13	229.99	1292	761.74	-166.93	1300.5	594.04	-133.98	1352.2	684.81	-136.89	1294	678.71	-149.68	1306.1	506.37	28.741	1343.4	383.39	-61.868	1296.4	295.3	-92.866	1328.7	303.19	-39.954	1353.2	36.738	-8.3957	1283.4	509.34	-127.07	1486.7	833.08	-284.97	1306.4	220.86	-20.429	1407.8	876.01	-305.48	1416.1	330.03	173.33	1377.5	253.65	165.73	1413.4	644.97	250.97	1438.8	534.7	92.388	1296.3	140.08	107.6	1375.8	722.22	256.54	1423.7	539.16	246.87	1398.1	54.797	153.02	1434	58.667	192.55	1335.8	799.5	259.11	1259.3	1587.8	-70.185	1221.6	1126.2	277.43	1192.6	129.33	135.42	1280.8	25.473	-81.396	1404.7	25.685	-51.74	1151.8	1384.4	125.22	1110	1038.7	69.109	1217.9	1494.4	5.494	1153.6	1180	24.427	1115.7	1050.3	-16.669	1228	84.947	73.995	1194.7	76.629	-10.173	1147	52.043	51.462	1250.1	1063.8	-209.47	1276.1	1606.6	78.732
558	2.79	1415.1	1666.9	-63.803	1415.4	1676.1	34.827	1417.7	1413.6	10.946	1482.9	1254.2	16.742	1360.6	996.48	-154.46	1379.6	1005.6	211.63	1301.8	1506.2	176.63	1277	1348.1	305.33	1283.1	1202.8	364.7	1313.2	1053.9	390.94	1336.4	931.97	329.92	1327.2	941.18	411.24	1360.2	855.2	384.13	1298.3	1471.6	-170.77	1285.8	1295	-257.23	1304.4	1131.6	-306.8	1367.5	1006.4	-313.67	1459	912.2	-253.26	1434.3	750.31	243.28	1467	408.15	179.7	1407.7	336.72	229.67	1295.7	761.53	-167.02	1303.6	593.76	-134.09	1355.7	684.16	-137	1297.6	678.48	-149.88	1308.8	506.01	28.724	1345.3	382.8	-61.87	1297.8	294.94	-92.826	1330.1	302.67	-39.934	1353.3	36.72	-8.4659	1285.9	509.1	-127.07	1499	835.51	-285.15	1307.4	220.46	-20.374	1419.6	877.49	-305.89	1430.8	330.09	173.17	1394.6	252.54	165.76	1421.5	645.86	250.26	1447.7	535.78	91.667	1317.1	136.38	107.75	1383.4	722.84	256.18	1432.6	539.86	246.08	1421.2	54.258	153.77	1456.8	59.282	193.43	1342.8	799.87	259.02	1265.5	1587.6	-69.981	1225.8	1126.3	277.5	1213.7	122.63	135.2	1280.8	25.481	-81.387	1404.8	25.583	-51.888	1158	1384.3	125.33	1116	1038.7	69.542	1224.2	1494.3	5.6697	1159.6	1180	24.769	1121.4	1050.4	-16.216	1228.4	84.988	74.125	1195	76.802	-10.007	1147.2	52.337	51.665	1259.2	1063.3	-210.3	1282.4	1606.2	78.959
559	2.795	1421.3	1666.7	-63.56	1421.7	1675.8	35.079	1423.8	1413.2	10.897	1489	1253.8	16.395	1365.9	996.19	-154.71	1386.4	1005.1	210.76	1308.3	1505.8	176.74	1282.8	1347.8	305.41	1288	1202.5	364.78	1316.8	1053.3	391.07	1339.1	931.16	330.15	1330	940.49	411.45	1362.3	854.25	384.4	1304.2	1471.4	-170.67	1292.8	1294.9	-257.33	1313.3	1131.7	-307.23	1377.9	1007.3	-314.03	1470.1	914.01	-253.42	1441.5	751.18	242.91	1479.1	409.37	179.36	1421.8	336.33	229.37	1299.4	761.3	-167.09	1306.7	593.46	-134.19	1359.3	683.49	-137.12	1301.1	678.24	-150.08	1311.5	505.64	28.694	1347.2	382.18	-61.873	1299.2	294.57	-92.782	1331.7	302.14	-39.912	1353.3	36.698	-8.5351	1288.5	508.83	-127.07	1511.1	837.91	-285.31	1308.4	220.04	-20.314	1431.3	878.96	-306.28	1445.4	330.18	173.03	1411.6	251.52	165.81	1429.3	646.63	249.55	1456.4	536.69	90.938	1338.1	132.86	107.88	1390.7	723.34	255.83	1441.3	540.43	245.27	1444.4	53.978	154.5	1479.7	60.129	194.3	1349.7	800.14	258.95	1271.7	1587.4	-69.766	1230	1126.4	277.57	1235	116.08	134.97	1280.8	25.491	-81.37	1404.9	25.477	-52.038	1164.3	1384.2	125.48	1122	1038.6	69.991	1230.4	1494.1	5.8638	1165.6	1179.8	25.149	1127	1050.4	-15.731	1228.8	85.039	74.258	1195.2	76.985	-9.8343	1147.5	52.64	51.882	1268.4	1062.8	-211.11	1288.7	1605.8	79.195
560	2.8	1427.6	1666.4	-63.309	1428	1675.4	35.339	1429.9	1412.8	10.857	1495.1	1253.3	16.062	1371.2	995.85	-154.96	1393.2	1004.6	209.88	1314.8	1505.3	176.87	1288.5	1347.5	305.5	1292.8	1202.1	364.85	1320.5	1052.7	391.19	1341.9	930.33	330.34	1332.8	939.77	411.64	1364.4	853.26	384.62	1310.1	1471.1	-170.56	1299.8	1294.6	-257.39	1322.3	1131.9	-307.61	1388.2	1008.2	-314.37	1481.2	915.79	-253.57	1448.6	751.91	242.53	1491	410.57	179.03	1435.7	335.96	229.06	1303.1	761.04	-167.14	1309.8	593.14	-134.29	1362.9	682.8	-137.24	1304.7	677.97	-150.27	1314.4	505.25	28.653	1349.2	381.54	-61.877	1300.7	294.18	-92.736	1333.2	301.58	-39.89	1353.4	36.675	-8.6041	1291.2	508.54	-127.06	1523.2	840.28	-285.44	1309.5	219.62	-20.25	1443	880.42	-306.66	1459.8	330.32	172.89	1428.6	250.61	165.87	1437.1	647.26	248.84	1464.8	537.42	90.202	1359.2	129.56	108.01	1398	723.73	255.48	1449.7	540.84	244.47	1467.5	53.979	155.2	1502.4	61.231	195.15	1356.5	800.31	258.9	1278	1587.1	-69.54	1234.3	1126.4	277.64	1256.5	109.73	134.72	1280.8	25.503	-81.346	1405	25.368	-52.189	1170.5	1384	125.67	1128	1038.5	70.46	1236.7	1493.8	6.0737	1171.6	1179.7	25.567	1132.7	1050.4	-15.209	1229.2	85.101	74.393	1195.5	77.178	-9.6558	1147.7	52.953	52.112	1277.5	1062.3	-211.88	1295	1605.4	79.441
561	2.805	1433.8	1666	-63.049	1434.3	1674.9	35.609	1436	1412.3	10.829	1501.2	1252.8	15.742	1376.5	995.48	-155.22	1400.1	1003.9	209.01	1321.2	1504.9	177	1294.3	1347.1	305.59	1297.6	1201.7	364.92	1324.2	1052.1	391.28	1344.6	929.49	330.51	1335.6	939.03	411.79	1366.5	852.25	384.8	1316.1	1470.7	-170.44	1306.9	1294.4	-257.43	1331.2	1132	-307.96	1398.5	1009	-314.69	1492.2	917.54	-253.69	1455.7	752.49	242.14	1502.8	411.73	178.72	1449.6	335.6	228.76	1306.8	760.75	-167.17	1313	592.79	-134.38	1366.5	682.09	-137.37	1308.4	677.68	-150.46	1317.4	504.84	28.601	1351.3	380.88	-61.884	1302.2	293.78	-92.688	1334.8	301.01	-39.869	1353.5	36.65	-8.6737	1293.9	508.23	-127.06	1535.1	842.63	-285.55	1310.6	219.18	-20.184	1454.5	881.87	-307.02	1474.2	330.5	172.77	1445.5	249.82	165.94	1444.6	647.75	248.13	1472.9	537.95	89.459	1380.3	126.48	108.11	1405.2	724	255.15	1457.9	541.1	243.66	1490.6	54.28	155.87	1525.1	62.608	195.96	1363.3	800.38	258.87	1284.2	1586.8	-69.304	1238.5	1126.4	277.71	1278.1	103.6	134.47	1280.8	25.518	-81.314	1405.1	25.256	-52.34	1176.8	1383.8	125.89	1134	1038.4	70.952	1242.9	1493.5	6.2971	1177.6	1179.4	26.021	1138.3	1050.4	-14.649	1229.6	85.171	74.535	1195.8	77.379	-9.4709	1147.9	53.275	52.356	1286.6	1061.8	-212.61	1301.4	1604.9	79.697
562	2.81	1440	1665.6	-62.778	1440.6	1674.4	35.89	1442.2	1411.8	10.811	1507.3	1252.2	15.436	1381.7	995.07	-155.49	1406.9	1003.2	208.17	1327.7	1504.4	177.13	1300	1346.7	305.7	1302.5	1201.2	364.99	1327.9	1051.4	391.36	1347.3	928.63	330.65	1338.4	938.27	411.93	1368.6	851.22	384.94	1322	1470.3	-170.3	1314	1294.1	-257.42	1340.2	1132.1	-308.26	1408.7	1009.9	-314.97	1503	919.26	-253.8	1462.6	752.91	241.75	1514.4	412.87	178.41	1463.3	335.28	228.46	1310.6	760.44	-167.19	1316.2	592.42	-134.48	1370.1	681.37	-137.51	1312.1	677.37	-150.63	1320.4	504.41	28.542	1353.4	380.19	-61.893	1303.7	293.35	-92.637	1336.4	300.42	-39.848	1353.5	36.625	-8.744	1296.6	507.91	-127.06	1546.9	844.95	-285.64	1311.7	218.73	-20.115	1466	883.31	-307.36	1488.5	330.74	172.65	1462.4	249.16	166.02	1452	648.09	247.43	1480.9	538.27	88.709	1401.4	123.67	108.2	1412.3	724.14	254.82	1466	541.19	242.85	1513.7	54.899	156.49	1547.7	64.279	196.72	1370.1	800.34	258.86	1290.4	1586.4	-69.058	1242.8	1126.3	277.78	1299.9	97.703	134.23	1280.8	25.534	-81.275	1405.1	25.144	-52.491	1183	1383.5	126.15	1140	1038.2	71.471	1249.2	1493.2	6.5319	1183.6	1179.2	26.513	1144	1050.3	-14.047	1230.1	85.249	74.683	1196.1	77.59	-9.2795	1148.2	53.608	52.613	1295.7	1061.2	-213.3	1307.7	1604.3	79.963
563	2.815	1446.3	1665.2	-62.494	1446.9	1673.9	36.184	1448.3	1411.2	10.804	1513.4	1251.5	15.146	1386.9	994.61	-155.77	1413.7	1002.4	207.36	1334.2	1503.8	177.28	1305.8	1346.3	305.81	1307.3	1200.8	365.05	1331.7	1050.7	391.42	1350.1	927.77	330.78	1341.3	937.49	412.04	1370.7	850.16	385.05	1328	1469.8	-170.14	1321.1	1293.7	-257.39	1349.1	1132.1	-308.52	1418.8	1010.7	-315.23	1513.8	920.95	-253.89	1469.4	753.15	241.35	1525.8	413.99	178.11	1477	334.98	228.16	1314.3	760.1	-167.19	1319.4	592.02	-134.57	1373.8	680.63	-137.67	1315.8	677.04	-150.78	1323.5	503.95	28.477	1355.5	379.48	-61.904	1305.3	292.91	-92.583	1338.1	299.81	-39.828	1353.6	36.6	-8.8152	1299.4	507.56	-127.06	1558.7	847.23	-285.72	1312.9	218.26	-20.043	1477.4	884.74	-307.68	1502.6	331.04	172.52	1479.2	248.64	166.08	1459.3	648.28	246.73	1488.6	538.39	87.95	1422.6	121.12	108.26	1419.2	724.14	254.51	1473.8	541.12	242.04	1536.6	55.852	157.04	1570.3	66.26	197.4	1376.8	800.19	258.86	1296.7	1586	-68.8	1247.2	1126.3	277.84	1321.8	92.077	134.01	1280.8	25.553	-81.227	1405.2	25.032	-52.641	1189.3	1383.2	126.43	1146	1037.9	72.019	1255.4	1492.7	6.7771	1189.6	1178.8	27.041	1149.7	1050.1	-13.401	1230.6	85.333	74.841	1196.5	77.809	-9.0818	1148.5	53.951	52.884	1304.8	1060.7	-213.95	1314.1	1603.7	80.238
564	2.82	1452.6	1664.7	-62.195	1453.2	1673.3	36.493	1454.5	1410.6	10.81	1519.6	1250.8	14.872	1392.1	994.12	-156.08	1420.5	1001.6	206.6	1340.7	1503.2	177.43	1311.5	1345.9	305.93	1312.2	1200.2	365.11	1335.4	1050	391.46	1352.9	926.89	330.88	1344.2	936.69	412.13	1372.8	849.08	385.12	1334	1469.3	-169.96	1328.2	1293.3	-257.33	1358	1132.2	-308.75	1428.9	1011.6	-315.47	1524.5	922.61	-253.96	1476.1	753.23	240.94	1537	415.08	177.79	1490.5	334.73	227.85	1318.1	759.73	-167.19	1322.7	591.6	-134.66	1377.4	679.88	-137.83	1319.5	676.69	-150.91	1326.7	503.46	28.41	1357.7	378.74	-61.916	1306.9	292.46	-92.526	1339.8	299.18	-39.807	1353.7	36.574	-8.8867	1302.2	507.18	-127.06	1570.3	849.48	-285.78	1314.1	217.79	-19.969	1488.7	886.15	-307.99	1516.6	331.4	172.38	1495.8	248.27	166.13	1466.3	648.31	246.04	1496.1	538.29	87.181	1443.7	118.85	108.3	1426.1	724.01	254.2	1481.5	540.87	241.24	1559.5	57.153	157.51	1592.6	68.565	197.99	1383.4	799.92	258.87	1303	1585.5	-68.531	1251.5	1126.2	277.89	1343.8	86.739	133.8	1280.8	25.574	-81.171	1405.3	24.922	-52.791	1195.7	1382.8	126.75	1152.1	1037.6	72.6	1261.7	1492.2	7.0321	1195.6	1178.5	27.606	1155.4	1049.9	-12.708	1231.1	85.421	75.008	1196.8	78.037	-8.878	1148.8	54.305	53.167	1313.8	1060.1	-214.56	1320.4	1603.1	80.524
